# xmcd CD database file
#
# Track frame offsets:
#	150
#	19532
#	38910
#	57260
#	83452
#	103010
#	118887
#	143520
#	155450
#	168440
#
# Disc length: 2604 seconds
#
# Revision: 0
# Processed by: cddbd v1.5PL3 Copyright (c) Steve Scherf et al.
# Submitted via: CDex 1.51
#
DISCID=740a2a0a
DTITLE=SNAKE HIP SHAKE - Never Say Die
DYEAR=2001
DGENRE=Hard Rock
TTITLE0=Never Say Die
TTITLE1=R &Rミュージックに首ったけ 
TTITLE2=Melancholia
TTITLE3=Rain 
TTITLE4=Brand-New Kicks
TTITLE5=Strong Will
TTITLE6=翳りゆく夏に
TTITLE7=地図にない道
TTITLE8=Inside, Outside
TTITLE9=時は誰も
EXTD=YEAR: 2001
EXTT0=
EXTT1=
EXTT2=
EXTT3=
EXTT4=
EXTT5=
EXTT6=
EXTT7=
EXTT8=
EXTT9=
PLAYORDER=
